<svg viewBox="0 0 72 72" xmlns="http://www.w3.org/2000/svg"><path d="m58.9041 56h2.4417c1.6886 0 2.6542-1.0067 2.6542-2.6635v-.3782-42h-50.9592v13.2772" fill="#9b9b9a"/><path d="m59 56h2.3957c1.6569 0 2.6043-1.0067 2.6043-2.6635v-.3782-42h-50v16.1541" fill="#9b9b9a"/><path d="m59 56h2.3957c1.6569 0 2.6043-1.0067 2.6043-2.6635v-.3782-42h-50" fill="#9b9b9a"/><path d="m9 16h50v40h-50z" fill="#d0cfce"/><g style="fill:none;stroke:#000;stroke-linecap:round;stroke-linejoin:round;stroke-miterlimit:10;stroke-width:2"><path d="m59 56h2.3957c1.6569 0 2.6043-1.0067 2.6043-2.6635v-.3782-42h-50"/><path d="m9 16h50v40h-50z"/><path d="m14 27.1124h20.0043v20.0043h-20.0043z"/><path d="m14 21.9988h40"/><path d="m39.5684 28.1124h14.4316"/><path d="m39.5684 34.4792h14.4316"/><path d="m39.5684 40.8459h14.4316"/><path d="m39.5684 47.2126h14.4316"/></g></svg>